{
  "accessors": [
    {
      "bufferView": 2,
      "componentType": 5126,
      "count": 256,
      "max": [
        58.15153884887695,
        58.15153884887695,
        19.685039520263672
      ],
      "min": [
        -58.15153884887695,
        -58.15153884887695,
        0.0
      ],
      "type": "VEC3"
    },
    {
      "bufferView": 2,
      "byteOffset": 3072,
      "componentType": 5126,
      "count": 256,
      "max": [
        1.0,
        1.0,
        0.9758089780807495
      ],
      "min": [
        -1.0,
        -1.0,
        -0.9758089780807495
      ],
      "type": "VEC3"
    },
    {
      "bufferView": 3,
      "componentType": 5126,
      "count": 256,
      "max": [
        1.0,
        1.0,
        0.42580899596214294,
        1.0
      ],
      "min": [
        -1.0,
        -1.0,
        -1.0,
        1.0
      ],
      "type": "VEC4"
    },
    {
      "bufferView": 1,
      "componentType": 5126,
      "count": 256,
      "max": [
        0.999500036239624,
        0.999500036239624
      ],
      "min": [
        0.0005000000237487257,
        0.0005000000237487257
      ],
      "type": "VEC2"
    },
    {
      "bufferView": 1,
      "byteOffset": 2048,
      "componentType": 5126,
      "count": 256,
      "max": [
        0.999500036239624,
        0.999500036239624
      ],
      "min": [
        0.0005000000237487257,
        0.0005000000237487257
      ],
      "type": "VEC2"
    },
    {
      "bufferView": 1,
      "byteOffset": 4096,
      "componentType": 5126,
      "count": 256,
      "max": [
        0.999500036239624,
        0.999500036239624
      ],
      "min": [
        0.0005000000237487257,
        0.0005000000237487257
      ],
      "type": "VEC2"
    },
    {
      "bufferView": 0,
      "componentType": 5125,
      "count": 864,
      "type": "SCALAR"
    },
    {
      "bufferView": 2,
      "byteOffset": 6144,
      "componentType": 5126,
      "count": 72,
      "max": [
        52.519683837890625,
        2.0415074825286865,
        15.295136451721191
      ],
      "min": [
        -52.519683837890625,
        -2.0415074825286865,
        0.0
      ],
      "type": "VEC3"
    },
    {
      "bufferView": 2,
      "byteOffset": 7008,
      "componentType": 5126,
      "count": 72,
      "max": [
        0.9869558215141296,
        0.9979952573776245,
        1.0
      ],
      "min": [
        -0.9869558215141296,
        -0.9979952573776245,
        -1.0
      ],
      "type": "VEC3"
    },
    {
      "bufferView": 1,
      "byteOffset": 6144,
      "componentType": 5126,
      "count": 72,
      "max": [
        0.999500036239624,
        0.6290534734725952
      ],
      "min": [
        0.0005000000237487257,
        0.0005000000237487257
      ],
      "type": "VEC2"
    },
    {
      "bufferView": 0,
      "byteOffset": 3456,
      "componentType": 5125,
      "count": 180,
      "type": "SCALAR"
    },
    {
      "bufferView": 2,
      "byteOffset": 7872,
      "componentType": 5126,
      "count": 72,
      "max": [
        52.519683837890625,
        2.0415074825286865,
        15.295136451721191
      ],
      "min": [
        -52.519683837890625,
        -2.0415074825286865,
        0.0
      ],
      "type": "VEC3"
    },
    {
      "bufferView": 2,
      "byteOffset": 8736,
      "componentType": 5126,
      "count": 72,
      "max": [
        0.9869558215141296,
        0.9979952573776245,
        1.0
      ],
      "min": [
        -0.9869558215141296,
        -0.9979952573776245,
        -1.0
      ],
      "type": "VEC3"
    },
    {
      "bufferView": 1,
      "byteOffset": 6720,
      "componentType": 5126,
      "count": 72,
      "max": [
        0.999500036239624,
        1.0026017427444458
      ],
      "min": [
        0.0004999488592147827,
        0.37404826283454895
      ],
      "type": "VEC2"
    },
    {
      "bufferView": 0,
      "byteOffset": 4176,
      "componentType": 5125,
      "count": 180,
      "type": "SCALAR"
    },
    {
      "bufferView": 2,
      "byteOffset": 9600,
      "componentType": 5126,
      "count": 392,
      "max": [
        36.572547912597656,
        36.57255172729492,
        27.80403709411621
      ],
      "min": [
        -36.57255554199219,
        -36.57255172729492,
        -3.356252670288086
      ],
      "type": "VEC3"
    },
    {
      "bufferView": 2,
      "byteOffset": 14304,
      "componentType": 5126,
      "count": 392,
      "max": [
        1.0,
        1.0,
        1.0
      ],
      "min": [
        -1.0,
        -1.0,
        -1.0
      ],
      "type": "VEC3"
    },
    {
      "bufferView": 1,
      "byteOffset": 7296,
      "componentType": 5126,
      "count": 392,
      "max": [
        0.9971727728843689,
        0.9945271611213684
      ],
      "min": [
        0.003931344952434301,
        0.00426061125472188
      ],
      "type": "VEC2"
    },
    {
      "bufferView": 0,
      "byteOffset": 4896,
      "componentType": 5125,
      "count": 1572,
      "type": "SCALAR"
    },
    {
      "bufferView": 4,
      "componentType": 5126,
      "count": 108,
      "max": [
        4.0
      ],
      "min": [
        0.0
      ],
      "type": "SCALAR"
    },
    {
      "bufferView": 5,
      "componentType": 5126,
      "count": 108,
      "max": [
        4.440892098500626e-16,
        -1.1852761439001824e-08,
        0.16881132125854492
      ],
      "min": [
        -4.440892098500626e-16,
        -1.1852763215358664e-08,
        0.16881132125854492
      ],
      "type": "VEC3"
    },
    {
      "bufferView": 4,
      "byteOffset": 432,
      "componentType": 5126,
      "count": 121,
      "max": [
        4.0
      ],
      "min": [
        0.0
      ],
      "type": "SCALAR"
    },
    {
      "bufferView": 6,
      "componentType": 5126,
      "count": 121,
      "max": [
        1.788288714595536e-17,
        1.721151427358282e-17,
        1.0,
        1.0
      ],
      "min": [
        -1.3582072393187974e-17,
        -1.8040388952030357e-17,
        -0.8526401519775391,
        -0.5
      ],
      "type": "VEC4"
    },
    {
      "bufferView": 4,
      "byteOffset": 916,
      "componentType": 5126,
      "count": 121,
      "max": [
        4.0
      ],
      "min": [
        0.0
      ],
      "type": "SCALAR"
    },
    {
      "bufferView": 5,
      "byteOffset": 1296,
      "componentType": 5126,
      "count": 121,
      "max": [
        0.0,
        8.860475540161133,
        5.0
      ],
      "min": [
        0.0,
        -7.5001912117004395,
        -5.0
      ],
      "type": "VEC3"
    },
    {
      "bufferView": 4,
      "byteOffset": 1400,
      "componentType": 5126,
      "count": 121,
      "max": [
        4.0
      ],
      "min": [
        0.0
      ],
      "type": "SCALAR"
    },
    {
      "bufferView": 6,
      "byteOffset": 1936,
      "componentType": 5126,
      "count": 121,
      "max": [
        -0.704416036605835,
        0.06162841618061066,
        0.06162841618061066,
        0.7071067690849304
      ],
      "min": [
        -0.7071067690849304,
        -0.06162841618061066,
        -0.06162841618061066,
        0.704416036605835
      ],
      "type": "VEC4"
    }
  ],
  "animations": [
    {
      "channels": [
        {
          "sampler": 0,
          "target": {
            "node": 6,
            "path": "translation"
          }
        },
        {
          "sampler": 1,
          "target": {
            "node": 6,
            "path": "rotation"
          }
        },
        {
          "sampler": 2,
          "target": {
            "node": 4,
            "path": "translation"
          }
        },
        {
          "sampler": 3,
          "target": {
            "node": 4,
            "path": "rotation"
          }
        }
      ],
      "name": "Take 001",
      "samplers": [
        {
          "input": 19,
          "interpolation": "LINEAR",
          "output": 20
        },
        {
          "input": 21,
          "interpolation": "LINEAR",
          "output": 22
        },
        {
          "input": 23,
          "interpolation": "LINEAR",
          "output": 24
        },
        {
          "input": 25,
          "interpolation": "LINEAR",
          "output": 26
        }
      ]
    }
  ],
  "asset": {
    "extras": {
      "author": "stageweight (https://sketchfab.com/stageweight)",
      "license": "CC-BY-4.0 (http://creativecommons.org/licenses/by/4.0/)",
      "source": "https://sketchfab.com/3d-models/flying-saucer-a-16be6e9528c743b190a4b2ecb91dbce9",
      "title": "Flying Saucer A"
    },
    "generator": "Sketchfab-12.65.0",
    "version": "2.0"
  },
  "bufferViews": [
    {
      "buffer": 0,
      "byteLength": 11184,
      "name": "floatBufferViews",
      "target": 34963
    },
    {
      "buffer": 0,
      "byteLength": 10432,
      "byteOffset": 11184,
      "byteStride": 8,
      "name": "floatBufferViews",
      "target": 34962
    },
    {
      "buffer": 0,
      "byteLength": 19008,
      "byteOffset": 21616,
      "byteStride": 12,
      "name": "floatBufferViews",
      "target": 34962
    },
    {
      "buffer": 0,
      "byteLength": 4096,
      "byteOffset": 40624,
      "byteStride": 16,
      "name": "floatBufferViews",
      "target": 34962
    },
    {
      "buffer": 0,
      "byteLength": 1884,
      "byteOffset": 44720,
      "name": "floatBufferViews"
    },
    {
      "buffer": 0,
      "byteLength": 2748,
      "byteOffset": 46604,
      "byteStride": 12,
      "name": "floatBufferViews"
    },
    {
      "buffer": 0,
      "byteLength": 3872,
      "byteOffset": 49352,
      "byteStride": 16,
      "name": "floatBufferViews"
    }
  ],
  "buffers": [
    {
      "byteLength": 53224,
      "uri": "scene.bin"
    }
  ],
  "images": [
    {
      "uri": "textures/FlyingSaucerRim_baseColor.jpeg"
    },
    {
      "uri": "textures/FlyingSaucerRim_emissive.jpeg"
    },
    {
      "uri": "textures/FlyingSaucerRim_normal.png"
    },
    {
      "uri": "textures/Material_27_baseColor.jpeg"
    },
    {
      "uri": "textures/FlyingSaucerBody_baseColor.jpeg"
    }
  ],
  "materials": [
    {
      "doubleSided": true,
      "emissiveFactor": [
        1.0,
        1.0,
        1.0
      ],
      "emissiveTexture": {
        "index": 1
      },
      "name": "FlyingSaucerRim",
      "normalTexture": {
        "index": 2
      },
      "pbrMetallicRoughness": {
        "baseColorTexture": {
          "index": 0
        },
        "metallicFactor": 0.0,
        "roughnessFactor": 0.8929713596497552
      }
    },
    {
      "doubleSided": true,
      "name": "Material_27",
      "pbrMetallicRoughness": {
        "baseColorTexture": {
          "index": 3
        },
        "metallicFactor": 0.0,
        "roughnessFactor": 0.8929713596497552
      }
    },
    {
      "doubleSided": true,
      "name": "FlyingSaucerBody",
      "pbrMetallicRoughness": {
        "baseColorTexture": {
          "index": 4
        },
        "metallicFactor": 0.0,
        "roughnessFactor": 0.8929713596497552
      }
    }
  ],
  "meshes": [
    {
      "name": "FlyingSaucerOuterHoop_FlyingSaucerRim_0",
      "primitives": [
        {
          "attributes": {
            "NORMAL": 1,
            "POSITION": 0,
            "TANGENT": 2,
            "TEXCOORD_0": 3,
            "TEXCOORD_1": 4,
            "TEXCOORD_2": 5
          },
          "indices": 6,
          "material": 0,
          "mode": 4
        }
      ]
    },
    {
      "name": "FlyingSaucerFinsX_Material #27_0",
      "primitives": [
        {
          "attributes": {
            "NORMAL": 8,
            "POSITION": 7,
            "TEXCOORD_0": 9
          },
          "indices": 10,
          "material": 1,
          "mode": 4
        }
      ]
    },
    {
      "name": "FlyingSaucerFinsY_Material #27_0",
      "primitives": [
        {
          "attributes": {
            "NORMAL": 12,
            "POSITION": 11,
            "TEXCOORD_0": 13
          },
          "indices": 14,
          "material": 1,
          "mode": 4
        }
      ]
    },
    {
      "name": "FlyingSaucerBody_FlyingSaucerBody_0",
      "primitives": [
        {
          "attributes": {
            "NORMAL": 16,
            "POSITION": 15,
            "TEXCOORD_0": 17
          },
          "indices": 18,
          "material": 2,
          "mode": 4
        }
      ]
    }
  ],
  "nodes": [
    {
      "children": [
        1
      ],
      "matrix": [
        1.0,
        0.0,
        0.0,
        0.0,
        0.0,
        2.220446049250313e-16,
        -1.0,
        0.0,
        0.0,
        1.0,
        2.220446049250313e-16,
        0.0,
        0.0,
        0.0,
        0.0,
        1.0
      ],
      "name": "Sketchfab_model"
    },
    {
      "children": [
        2
      ],
      "matrix": [
        1.0,
        0.0,
        0.0,
        0.0,
        0.0,
        0.0,
        1.0,
        0.0,
        0.0,
        -1.0,
        0.0,
        0.0,
        0.0,
        0.0,
        0.0,
        1.0
      ],
      "name": "e1d418ab7057484097b3ff44e8246c21.fbx"
    },
    {
      "children": [
        3
      ],
      "name": "Object_2"
    },
    {
      "children": [
        4
      ],
      "name": "RootNode"
    },
    {
      "children": [
        5
      ],
      "name": "FlightControllerDummy",
      "rotation": [
        -0.7071068286895752,
        -0.0,
        0.0,
        0.7071068286895752
      ]
    },
    {
      "children": [
        6,
        15
      ],
      "name": "ShipDummy",
      "scale": [
        0.8182169795036316,
        0.8182169795036316,
        1.3142859935760498
      ],
      "translation": [
        0.0,
        -3.984378906807251e-07,
        9.115196228027344
      ]
    },
    {
      "children": [
        7
      ],
      "name": "HoopDummy",
      "scale": [
        3.1106040477752686,
        3.1106040477752686,
        0.3728789985179901
      ],
      "translation": [
        0.0,
        -1.1852762327180244e-08,
        0.16881132125854492
      ]
    },
    {
      "children": [
        8,
        9,
        12
      ],
      "name": "FlyingSaucerOuterHoop",
      "rotation": [
        8.645339080987449e-35,
        8.685033826258039e-35,
        0.7087244987487793,
        0.7054853439331055
      ],
      "scale": [
        0.39290401339530945,
        0.39290401339530945,
        2.0405240058898926
      ],
      "translation": [
        0.0,
        1.6035842520523147e-07,
        -19.052507400512695
      ]
    },
    {
      "mesh": 0,
      "name": "FlyingSaucerOuterHoop_FlyingSaucerRim_0"
    },
    {
      "children": [
        10
      ],
      "name": "FlyingSaucerFinsX",
      "rotation": [
        -5.539429333515703e-33,
        3.181757946486703e-33,
        -0.7087246179580688,
        0.7054852247238159
      ],
      "translation": [
        -2.2374697437044233e-06,
        -1.709336743260792e-06,
        9.842519760131836
      ]
    },
    {
      "children": [
        11
      ],
      "matrix": [
        1.0,
        0.0,
        -0.0,
        0.0,
        0.0,
        1.0,
        0.0,
        0.0,
        0.0,
        0.0,
        1.0,
        0.0,
        0.0,
        0.0,
        -7.6475677490234375,
        1.0
      ],
      "name": "Object_10"
    },
    {
      "mesh": 1,
      "name": "FlyingSaucerFinsX_Material #27_0"
    },
    {
      "children": [
        13
      ],
      "name": "FlyingSaucerFinsY",
      "rotation": [
        1.4420162420993387e-32,
        6.129961695854326e-33,
        -0.0022905447985976934,
        0.9999973773956299
      ],
      "translation": [
        -2.2374697437044233e-06,
        -1.709336743260792e-06,
        9.842519760131836
      ]
    },
    {
      "children": [
        14
      ],
      "matrix": [
        1.0,
        0.0,
        -0.0,
        0.0,
        0.0,
        1.0,
        0.0,
        0.0,
        0.0,
        0.0,
        1.0,
        0.0,
        0.0,
        0.0,
        -7.6475677490234375,
        1.0
      ],
      "name": "Object_13"
    },
    {
      "mesh": 2,
      "name": "FlyingSaucerFinsY_Material #27_0"
    },
    {
      "children": [
        16
      ],
      "name": "FlyingSaucerBody",
      "scale": [
        1.222169041633606,
        1.222169041633606,
        0.760869026184082
      ],
      "translation": [
        0.0,
        4.869585836786428e-07,
        -6.935474395751953
      ]
    },
    {
      "mesh": 3,
      "name": "FlyingSaucerBody_FlyingSaucerBody_0"
    }
  ],
  "samplers": [
    {
      "magFilter": 9729,
      "minFilter": 9987,
      "wrapS": 10497,
      "wrapT": 10497
    }
  ],
  "scene": 0,
  "scenes": [
    {
      "name": "Sketchfab_Scene",
      "nodes": [
        0
      ]
    }
  ],
  "textures": [
    {
      "sampler": 0,
      "source": 0
    },
    {
      "sampler": 0,
      "source": 1
    },
    {
      "sampler": 0,
      "source": 2
    },
    {
      "sampler": 0,
      "source": 3
    },
    {
      "sampler": 0,
      "source": 4
    }
  ]
}
