<?xml version="1.0" encoding="utf-8"?>
<!-- Generator: Adobe Illustrator 26.5.3, SVG Export Plug-In . SVG Version: 6.00 Build 0)  -->
<svg version="1.1" id="Layer_1" xmlns="http://www.w3.org/2000/svg" xmlns:xlink="http://www.w3.org/1999/xlink" x="0px" y="0px"
	 viewBox="0 0 208 208" style="enable-background:new 0 0 208 208;" xml:space="preserve">
<style type="text/css">
	.st0{fill:#FFFFFF;}
</style>
<g>
	<path class="st0" d="M69.5,182.2c-0.8-3.3-1.6-6.3-2.4-9.4c-3-11.8-5.9-23.7-8.9-35.5c-0.5-2-0.2-3.8,0.9-5.5
		C70.7,114,82.3,96.3,93.8,78.6c1.4-2.2,2.8-4.3,4.2-6.5c0.2-0.3,0.5-0.6,1-0.9c0.1,0.6,0.2,1.2,0.2,1.8c0,16.4,0,32.9,0,49.3
		c0,8.5,0,17,0,25.4c0,1.7-0.6,2.7-2.1,3.6c-5.2,2.8-8,8.4-7.1,13.9c0.9,5.9,5.1,10.3,10.9,11.6c6.6,1.4,13.3-2.3,15.7-8.6
		c2.4-6.4-0.1-13.4-6.1-16.6c-1.7-0.9-2.3-2.1-2.3-4c0-14.9,0.1-29.8,0.1-44.7c0-10.1,0-20.1,0-30.2c0-0.5,0-0.9,0-1.4
		c0.1,0,0.2-0.1,0.4-0.1c0.3,0.4,0.7,0.8,1,1.2c7.5,11.5,15.1,23,22.6,34.5c5.2,8,10.4,15.9,15.7,23.9c1.6,2.4,2,4.8,1.2,7.6
		c-3.7,14.2-7.2,28.4-10.8,42.7c-0.1,0.3-0.1,0.7-0.2,1.3c1.5,0,2.9,0,4.3,0c1.2,0,2.4,0,3.6,0.2c2.5,0.5,3.9,2.2,3.8,4.6
		c-0.1,2.4-1.6,4.1-4.2,4.4c-0.8,0.1-1.5,0.1-2.3,0.1c-20.6,0-41.3,0-61.9,0c-5.9,0-11.7,0-17.6-0.1c-1.3,0-2.6-0.4-3.7-0.8
		c-1.6-0.6-2.6-1.8-2.5-3.6c0.1-1.9,0.8-3.6,2.8-4.3c0.7-0.3,1.6-0.4,2.4-0.4C65,182.2,67.2,182.2,69.5,182.2z"/>
	<path class="st0" d="M80.7,34.9c0-3.2,0-6.1,0-9.1c0-1.5,0-2.9,0-4.4c0.2-3.3,1.9-4.9,5.2-4.9c7.5,0,15.1,0,22.6,0
		c4,0,7.9,0,11.9,0c0.4,0,0.9,0,1.3,0c3.3,0.1,5,1.8,5,5.1c0.1,3.9,0,7.8,0,11.6c0,0.5,0,1,0,1.7c1,0,1.8,0,2.7,0
		c13.2,0,26.5,0,39.7,0c4.1,0,4,0.6,6.4-3.2c3-4.8,8.6-6.9,14.1-5.6c5.6,1.2,9.7,5.6,10.7,11.4c0.9,5.4-1.7,11.1-6.5,14
		c-4.9,2.9-11.2,2.7-15.5-0.8c-1.6-1.3-2.8-3.1-4-4.8c-0.8-1.1-1.5-1.7-2.9-1.6c-5,0.2-10.1,0.2-15.1,0.3c-0.3,0-0.6,0.1-1.3,0.1
		c0.6,0.4,1,0.7,1.3,0.9c9.5,5.8,17.8,12.9,24.7,21.7c7.2,8.7,12,18.7,14.9,29.6c1.9,7,3,14,3.1,21.3c0,1.1-0.2,2.4-0.6,3.4
		c-0.7,1.8-2.2,2.6-4.1,2.6c-1.9,0-3.3-0.9-3.9-2.7c-0.4-1-0.5-2.2-0.5-3.3c-0.3-9.6-1.9-18.9-5.7-27.7
		c-10.4-23.9-28.1-39.2-53.5-45.6c-0.8-0.2-1.7-0.4-2.5-0.5c-0.4-0.1-0.7-0.1-1.2-0.1c0,0.4-0.1,0.8-0.1,1.1c0,3.8,0,7.7,0,11.5
		c0,4-1.7,5.7-5.7,5.7c-11.6,0-23.3,0-34.9,0c-0.3,0-0.6,0-1,0c-2.9-0.2-4.4-1.6-4.5-4.5c-0.1-4-0.1-7.9-0.1-11.9c0-0.6,0-1.2,0-2.1
		c-2.6,0.6-4.9,1-7.3,1.7c-9.6,2.7-18.1,7.4-26,13.3C32,70.7,23,86.3,19.3,105.1c-0.9,4.4-1.5,8.7-1.5,13.2c0,0.8-0.1,1.6-0.3,2.4
		c-0.6,2.4-2.6,3.7-5,3.4c-2.2-0.3-3.9-2-3.9-4.4c0-3.3,0.2-6.7,0.5-10c1.6-14.3,6.5-27.4,14.8-39.2C31.1,60.3,40,51.9,50.8,45.6
		c0.6-0.3,1.1-0.7,1.7-1.1c0-0.1-0.1-0.2-0.1-0.3c-1.8,0-3.7,0-5.5,0c-3.5,0-6.9,0.1-10.4,0c-1.6,0-2.6,0.6-3.3,1.9
		c-1.5,2.9-3.9,4.9-6.9,6.2c-4.9,2.1-10.7,1.1-14.7-2.7C7.5,45.7,6.2,40.3,8,35.1c3.2-8.9,11.6-10.5,17.6-8.7c3.3,1,5.6,3.2,7.2,6.1
		c1,1.8,2.3,2.5,4.3,2.5c14-0.1,27.9,0,41.8-0.1C79.4,34.9,80,34.9,80.7,34.9z"/>
	<path class="st0" d="M99.3,163.2c0-2.6,1.6-4,4.5-4c3,0,4.7,1.4,4.7,4s-2.1,4.7-4.7,4.7C101.3,167.9,99.2,165.8,99.3,163.2z"/>
</g>
</svg>
