<?xml version="1.0" encoding="utf-8"?>
<!-- Generator: Adobe Illustrator 26.5.3, SVG Export Plug-In . SVG Version: 6.00 Build 0)  -->
<svg version="1.1" id="Layer_1" xmlns="http://www.w3.org/2000/svg" xmlns:xlink="http://www.w3.org/1999/xlink" x="0px" y="0px"
	 viewBox="0 0 208 208" style="enable-background:new 0 0 208 208;" xml:space="preserve">
<style type="text/css">
	.st0{fill:#FFFFFF;}
</style>
<g>
	<path class="st0" d="M197.2,152.5c0,6.2,0,12.2,0,18.4c-3.2,0-6.2,0-9.3,0c-2,0-3.4,1.2-3.6,3c-0.2,2.2,1.3,3.8,3.7,3.8
		c3,0,6,0,9.4,0c-0.1,2.8,0,5.5-0.5,8.1c-0.6,3.3-3.9,5.6-7.3,5.7c-0.7,0-1.3,0-2,0c-56,0-112,0-168.1,0c-5.8,0-8.9-3.1-8.9-8.9
		c0-1.6,0-3.2,0-5c3.2,0,6.2,0,9.2,0c1.9,0,3.3-0.9,3.7-2.5c0.6-2.2-0.9-4.3-3.4-4.3c-3.1-0.1-6.2,0-9.4,0c0-6.1,0-12.1,0-18.4
		c2.3,0,4.7,0,7,0c1.8,0,3.7,0,5.5,0c5.6-0.1,10.4-4.3,10.6-9.9c0.2-8.2,0.1-16.5,0.1-24.7c0-1.9,0-3.8-0.1-5.7
		c-0.4-6.2-4.8-10.4-11.1-10.4c-4,0-8,0-12.2,0c0-6.1,0-12.1,0-18.3c2.4,0,4.9,0,7.4,0c0.8,0,1.5,0,2.3,0c2-0.2,3.3-1.7,3.2-3.6
		C23.3,78,22,76.6,20,76.6c-3.1-0.1-6.3,0-9.8,0c0.1-2.8-0.1-5.5,0.4-8c0.7-3.5,3.8-5.8,7.6-5.8c9.1-0.1,18.3,0,27.4,0
		c3.6,0,7.1,0,10.7,0c0.6,0,1.4,0.2,1.9,0.7c3.9,4.1,7.8,8.3,11.7,12.5c0.1,0.1,0.2,0.3,0.4,0.7c-2,0-3.9,0-5.7,0
		c-1.8,0-3.6,0-5.3,0C57.4,76.8,56,78.2,56,80c-0.1,1.8,1.3,3.4,3.1,3.5c4.2,0.1,8.4,0.2,12.6-0.1c1.1-0.1,2.2-1.2,3.4-1.9
		c1.7,1.8,3.6,3.8,5.5,5.9c0.3,0.4,0.4,1.1,0.3,1.6c-1.1,5.6,0.9,9.9,5.6,13c0.9,0.6,1.8,1.2,2.9,1.9c-3.5,2.8-4.5,6.5-4.4,10.7
		c0.1,8.7,0,17.3,0,26c0,7.5,4.4,12,11.9,12c4.9,0,9.7,0,14.6,0c6.4,0,11.1-4.7,11.1-11.1c0-6.6,0-13.3,0-19.9c0-0.6,0-1.3,0-1.6
		c2.4-1.1,4.6-2,6.8-3c0,0.3,0,0.9,0,1.5c0,7.6,0,15.2,0,22.8c0,6.7,4.6,11.3,11.3,11.3c5.1,0,10.2,0,15.3,0
		c6.1,0,10.8-4.3,10.9-10.3c0.2-10,0.2-19.9,0-29.9c-0.1-6.3-4.8-10.5-11.1-10.5c-4.7,0-9.5,0.1-14.2,0s-8.4,1.6-11.2,6.2
		c-0.3-1.2-0.5-2-0.6-2.8c-0.2-3.4-0.2-6.8-0.7-10.1c-0.7-4.1-3.1-7.2-6.5-9.6c-0.6-0.4-1-1-1.8-1.9c1.1-0.1,1.7-0.1,2.3-0.2
		c1.8-0.3,3.2-1.8,3.1-3.6c-0.1-1.7-1.4-3-3.2-3.2c-0.1,0-0.2,0-0.4,0c-3.4,0.7-5.2-0.9-6.8-3.7c-2.9-5-7.5-6.8-13.2-5.7
		c-0.4,0.1-1.1-0.1-1.4-0.4c-1.4-1.2-2.7-2.5-4.2-4c0.8-0.1,1.2-0.1,1.7-0.1c29.9,0,59.9,0,89.8,0c5.7,0,8.8,3.2,8.8,8.8
		c0,1.6,0,3.2,0,5c-1.9,0-3.6,0-5.4,0c-1.4,0-2.7,0-4.1,0c-2.1,0.1-3.5,1.5-3.5,3.4s1.4,3.3,3.6,3.4c2.5,0.1,5,0,7.5,0
		c0.6,0,1.2,0,1.8,0c0,6.1,0,12.1,0,18.2c-0.5,0-1,0.1-1.5,0.1c-3.5,0-7,0-10.5,0c-6.6,0-11.2,4.5-11.3,11.1c0,9.5,0,19,0,28.5
		c0,6.7,4.6,11.2,11.4,11.2C189.2,152.5,193.1,152.5,197.2,152.5z M40.9,127.1c0,4.9,0,9.8,0,14.7c0.1,5.9,4.7,10.6,10.6,10.6
		c5.4,0.1,10.8,0,16.2,0c6,0,10.7-4.7,10.7-10.8c0-9.7,0-19.3,0-29c0-6.4-4.6-11-11-11c-5.2,0-10.3,0-15.5,0
		c-6.5,0.1-11,4.6-11,11.1C40.9,117.6,40.9,122.3,40.9,127.1z M91.2,170.8c-2,0-3.9,0-5.9,0c-2.2,0.1-3.6,1.4-3.6,3.3
		c0,2,1.4,3.4,3.5,3.4c3.9,0.1,7.8,0.1,11.7,0c2.1,0,3.6-1.5,3.6-3.4c0-2-1.5-3.4-3.7-3.4C95,170.8,93.1,170.8,91.2,170.8z
		 M116.8,177.6c1.8,0,3.7,0,5.5,0c2.3,0,3.9-1.5,3.9-3.4c0-2-1.5-3.3-3.8-3.4c-3.8,0-7.6,0-11.4,0c-2.3,0-3.7,1.4-3.7,3.4
		s1.5,3.4,3.8,3.4C113.1,177.7,114.9,177.6,116.8,177.6z M168,177.6c2,0,4,0.1,6,0s3.4-1.6,3.5-3.4c0-1.9-1.5-3.4-3.5-3.4
		c-3.9-0.1-7.8,0-11.7,0c-2.2,0-3.6,1.4-3.6,3.3c0,2,1.4,3.4,3.7,3.5C164.2,177.7,166.1,177.6,168,177.6z M168.2,76.6c-2,0-4,0-6,0
		c-2,0.1-3.4,1.4-3.5,3.3s1.3,3.5,3.3,3.5c4.1,0.1,8.2,0.1,12.2,0c1.9,0,3.4-1.7,3.4-3.5s-1.5-3.2-3.5-3.3
		C172.1,76.5,170.1,76.6,168.2,76.6z M65.7,170.8c-2.1,0-4.1-0.1-6.2,0c-1.9,0.1-3.3,1.4-3.3,3.2c-0.1,1.8,1.3,3.5,3.3,3.5
		c4.1,0.1,8.2,0.1,12.2,0c2,0,3.4-1.6,3.3-3.4c0-1.9-1.4-3.3-3.4-3.3S67.6,170.8,65.7,170.8z M142.4,177.6c1.9,0,3.8,0,5.7,0
		c2.2,0,3.8-1.5,3.8-3.4s-1.5-3.4-3.8-3.4c-3.8,0-7.6,0-11.4,0c-2.3,0-3.7,1.4-3.7,3.4s1.5,3.4,3.7,3.4
		C138.7,177.7,140.6,177.6,142.4,177.6z M142.4,76.6c-2,0-3.9,0-5.9,0c-2.1,0-3.6,1.4-3.6,3.4s1.4,3.4,3.5,3.4
		c3.9,0.1,7.8,0.1,11.7,0c2.1,0,3.6-1.5,3.6-3.4s-1.5-3.3-3.6-3.4C146.4,76.5,144.4,76.6,142.4,76.6z M40,83.4c2,0,3.9,0,5.9,0
		c2.1-0.1,3.6-1.5,3.6-3.4s-1.5-3.3-3.6-3.4c-3.9,0-7.8,0-11.7,0c-2.1,0-3.6,1.5-3.5,3.4c0,1.9,1.5,3.3,3.6,3.4
		C36.1,83.4,38,83.4,40,83.4z M40,170.8c-2,0-3.9,0-5.9,0c-2.2,0-3.6,1.4-3.6,3.3c0,1.9,1.4,3.4,3.5,3.5c4,0.1,7.9,0.1,11.9,0
		c2,0,3.4-1.5,3.4-3.4s-1.4-3.4-3.5-3.4C43.9,170.8,41.9,170.8,40,170.8z"/>
	<path class="st0" d="M114.3,88.8c0.9,0.3,1.5,0.6,2.2,0.8c4.3,1.7,6.5,5,6.7,9.6c0.1,2-0.1,4,0,6c0.1,1.6,0.5,3.1,1,4.6
		c0.6,1.6,0,2.8-1.6,2.5c-4.1-0.5-8.2-1.1-12.3-1.9c-5.3-1-8.1-4.6-9.3-9.7c-5,0.4-8.1-3.2-11.7-5.6c-2.1-1.4-2.2-4.6-0.7-6.7
		c0.4-0.5,0.8-0.9,1.3-1.5c-1.4-1.5-2.8-3-4.2-4.5c-17.7-19-35.4-38-53.1-56.9c-1.3-1.3-2.3-2.7-2.1-4.7c0.2-1.9,1.2-3.3,3-4.1
		c2-0.8,3.7-0.4,5.3,1c4.1,3.8,8.2,7.6,12.2,11.4c16.3,15.2,32.6,30.4,48.9,45.6c0.3,0.3,0.7,0.6,1.1,1c0.4-0.3,0.8-0.7,1.2-1
		c2.3-1.9,5.6-1.6,7.4,0.8c1.5,2.1,3,4.3,4.3,6.5C115.1,84.3,115.1,86.5,114.3,88.8z M95.4,91.5c1.2,0.8,2.4,1.7,3.7,2.4
		c0.4,0.2,1.2,0.1,1.5-0.2c2.4-2.3,4.8-4.7,7.1-7.1c0.3-0.3,0.3-1,0.2-1.4c-0.8-1.4-1.7-2.6-2.4-3.8C102.1,84.9,98.8,88.1,95.4,91.5
		z"/>
</g>
</svg>
