<?xml version="1.0" encoding="utf-8"?>
<!-- Generator: Adobe Illustrator 26.5.3, SVG Export Plug-In . SVG Version: 6.00 Build 0)  -->
<svg version="1.1" id="Layer_1" xmlns="http://www.w3.org/2000/svg" xmlns:xlink="http://www.w3.org/1999/xlink" x="0px" y="0px"
	 viewBox="0 0 208 208" style="enable-background:new 0 0 208 208;" xml:space="preserve">
<style type="text/css">
	.st0{fill:#FFFFFF;}
</style>
<g>
	<path class="st0" d="M127.1,151c0,7.5,0,14.8,0,22.3c0.5,0,1,0,1.5,0c8.4,0,16.7,0,25.1,0c6.2,0,10.4,5.9,8.6,11.8
		c-1.2,3.9-4.7,6.4-9.1,6.4c-11.2,0-22.4,0-33.6,0c-21.6,0-43.2,0-64.8,0c-4.4,0-8-2.4-9.2-6.3c-1.9-5.8,2.4-11.8,8.5-11.9
		c8.4,0,16.7,0,25.1,0c0.5,0,1,0,1.5,0c0-7.4,0-14.8,0-22.3c-0.7,0-1.3,0-2,0c-21.8,0-43.6,0-65.4,0c-3.7,0-6.7-1.1-9-4.1
		c-1.2-1.7-1.8-3.6-1.8-5.7c0-29.4,0-58.7,0-88.1c0-8.8,0-17.6,0-26.3c0-6.1,4.2-10.3,10.3-10.3c53.5,0,107,0,160.4,0
		c7.2,0,14.3,0,21.5,0c6.3,0,10.4,4.2,10.4,10.4c0,37.9,0,75.8,0,113.7c0,6-4.6,10.4-10.5,10.4c-22-0.1-44.1,0-66.1,0
		C128.2,151,127.7,151,127.1,151z M190.5,136.2c0-35,0-69.9,0-104.9c-57.7,0-115.3,0-173,0c0,35,0,69.9,0,104.9
		C75.1,136.2,132.8,136.2,190.5,136.2z"/>
	<path class="st0" d="M93.7,121.1c-4.1,0-7-3.9-5.7-7.9c2.8-8.8,5.7-17.7,8.5-26.5c3.9-12.1,7.8-24.2,11.7-36.3
		c0.9-2.8,3.2-4.5,5.9-4.5c2.7,0,4.9,1.7,5.8,4.2c0.5,1.4,0.3,2.8-0.1,4.2c-2.8,8.7-5.6,17.4-8.4,26c-3.9,12.1-7.8,24.2-11.7,36.3
		C98.8,119.5,96.6,121.1,93.7,121.1z"/>
	<path class="st0" d="M142.1,83.6c-5.5-2.6-10.8-5-16.1-7.5c-1-0.5-2.1-0.9-3.1-1.4c-3.1-1.5-4.5-5-3.1-8.1s4.9-4.5,8.2-3
		c10.2,4.7,20.4,9.5,30.5,14.2c2.5,1.2,3.8,3.1,3.8,5.8c0,2.7-1.3,4.7-3.8,5.8c-10.1,4.7-20.3,9.5-30.4,14.1c-3.3,1.5-6.8,0.2-8.3-3
		c-1.4-3.1,0-6.7,3.3-8.2c5.9-2.7,11.9-5.5,17.8-8.3C141.3,84.1,141.6,83.9,142.1,83.6z"/>
	<path class="st0" d="M65.8,83.7c3.7,1.7,7.1,3.3,10.5,4.9c3,1.4,6,2.7,8.9,4.1c2.6,1.3,3.8,3.9,3.3,6.7c-0.5,2.6-2.6,4.6-5.4,4.8
		c-1.1,0.1-2.4-0.2-3.4-0.6c-10.1-4.6-20.1-9.3-30.2-14c-2.5-1.2-3.9-3-3.9-5.9c0-2.8,1.4-4.7,3.9-5.9c10.1-4.7,20.2-9.4,30.3-14.1
		c3.2-1.5,6.8-0.3,8.2,2.8c1.4,3.1,0.1,6.7-3,8.2c-6.1,2.9-12.2,5.7-18.3,8.5C66.4,83.3,66.2,83.4,65.8,83.7z"/>
</g>
</svg>
