<?xml version="1.0" encoding="utf-8"?>
<!-- Generator: Adobe Illustrator 26.5.3, SVG Export Plug-In . SVG Version: 6.00 Build 0)  -->
<svg version="1.1" id="Layer_1" xmlns="http://www.w3.org/2000/svg" xmlns:xlink="http://www.w3.org/1999/xlink" x="0px" y="0px"
	 viewBox="0 0 208 208" style="enable-background:new 0 0 208 208;" xml:space="preserve">
<style type="text/css">
	.st0{fill:#FFFFFF;}
</style>
<g>
	<path class="st0" d="M104,75.1c15.9,0,31.8,0,47.7,0c0.4,0,0.6,0.1,0.6,0.6c0,23,0,46.1,0,69.1c0,5.6-3.5,10.2-8.7,11.6
		c-1,0.3-2.1,0.4-3.2,0.4c-2.4,0-4.7,0-7.1,0c-0.4,0-0.5,0.1-0.5,0.5c0,7.7,0,15.5,0,23.2c0,3.1-1,5.8-3.2,7.9
		c-3.1,3-6.8,3.9-10.8,2.6c-4.2-1.3-6.6-4.3-7.4-8.6c-0.1-0.7-0.2-1.4-0.2-2c0-7.7,0-15.3,0-23c0-0.4-0.1-0.5-0.5-0.5
		c-4.5,0-8.9,0-13.4,0c-0.4,0-0.5,0.1-0.5,0.5c0,7.7,0.1,15.5,0,23.2c0,4.7-2.3,8.2-6.6,10.1c-6.5,2.8-14-1.5-14.9-8.5
		c-0.1-0.6-0.1-1.2-0.1-1.9c0-7.6,0-15.3,0-22.9c0-0.5-0.1-0.6-0.6-0.6c-2.7,0-5.3,0.1-8,0c-4.7-0.3-8.8-3.4-10.3-7.9
		c-0.4-1.3-0.6-2.6-0.6-4c0-23.1,0-46.1,0-69.2c0-0.4,0.1-0.5,0.5-0.5C72.2,75.1,88.1,75.1,104,75.1z"/>
	<path class="st0" d="M104,71.3c-15.8,0-31.7,0-47.5,0c-0.7,0-0.7,0-0.7-0.7c0.1-3.1,0.4-6.1,1.2-9.1c1.6-6.4,4.5-12.1,8.7-17.1
		c4-4.8,8.8-8.7,14.3-11.6c0.3-0.2,0.4-0.3,0.2-0.6c-2.4-4.4-4.9-8.8-7.3-13.2c-0.2-0.4-0.4-0.8-0.3-1.2c0.1-0.6,0.6-1.1,1.2-1.2
		c0.7-0.1,1.3,0.1,1.7,0.8c0.9,1.6,1.8,3.2,2.6,4.8c1.6,2.9,3.2,5.8,4.8,8.7c0.1,0.3,0.3,0.4,0.6,0.2c4.5-2,9.2-3.2,14-3.8
		c9.3-1.1,18.3,0.1,26.9,3.8c0.4,0.2,0.5,0.1,0.7-0.2c2.4-4.5,4.9-8.9,7.4-13.3c0.3-0.5,0.6-0.8,1.1-0.9c0.6-0.1,1.2,0.1,1.5,0.6
		c0.4,0.5,0.4,1.1,0.1,1.7c-0.9,1.5-1.7,3.1-2.6,4.6c-1.6,2.9-3.2,5.8-4.8,8.7c-0.2,0.4-0.1,0.5,0.2,0.7c7,3.7,12.7,8.8,17.1,15.4
		c3.4,5.1,5.6,10.6,6.6,16.7c0.3,2.1,0.5,4.1,0.5,6.2c0,0.2,0,0.3-0.3,0.3c-0.1,0-0.2,0-0.4,0C135.8,71.3,119.9,71.3,104,71.3z
		 M122.3,49.7c0,2.2,1.8,4,4,4s4-1.8,4-4.1c0-2.2-1.9-4-4.1-4C124,45.6,122.2,47.4,122.3,49.7z M85.7,49.6c0-2.2-1.8-4-4-4
		s-4,1.8-4,4s1.8,4,4,4C84,53.7,85.8,51.9,85.7,49.6z"/>
	<path class="st0" d="M51.7,106.7c0,7.6,0,15.2,0,22.9c0,5.3-4.3,9.8-9.5,10.4c-5.7,0.6-10.6-3-11.8-8.6c-0.2-0.7-0.2-1.5-0.2-2.3
		c0-15,0-29.9,0-44.9c0-5.6,3.9-10,9.4-10.8c5.6-0.8,11,3.2,12,8.7c0.1,0.8,0.2,1.5,0.2,2.3C51.7,91.8,51.7,99.3,51.7,106.7
		L51.7,106.7z"/>
	<path class="st0" d="M156.3,106.6c0-7.5,0-14.9,0-22.4c0-4.5,2.1-7.8,6-9.8c6.4-3.3,14.3,0.8,15.4,7.9c0.1,0.7,0.2,1.3,0.2,2
		c0,14.9,0,29.8,0,44.7c0,5-3.1,9.1-7.7,10.5c-6.4,1.9-13-2.4-13.9-9c-0.1-0.6-0.1-1.2-0.1-1.7C156.3,121.4,156.3,114,156.3,106.6z"
		/>
</g>
</svg>
